<svg width="24" height="24" viewBox="0 0 24 24" fill="none" xmlns="http://www.w3.org/2000/svg">
<path d="M3.35159 6.67031C3.37971 6.39375 3.2719 6.11719 3.06565 5.92969L0.951587 3.37969V3H7.52346L12.6047 14.1422L17.0719 3H23.3391V3.37969L21.5297 5.11406C21.375 5.23125 21.2953 5.42812 21.3281 5.62031V18.3703C21.2953 18.5625 21.375 18.7594 21.5297 18.8766L23.2969 20.6109V20.9906H14.4047V20.6109L16.2375 18.8344C16.4156 18.6562 16.4156 18.6 16.4156 18.3281V8.025L11.3203 20.9578H10.6313L4.70627 8.025V16.6922C4.65471 17.0578 4.77659 17.4234 5.0344 17.6859L7.41565 20.5734V20.9531H0.665649V20.5781L3.0469 17.6859C3.30002 17.4234 3.41721 17.0531 3.35159 16.6922V6.67031Z" fill="white"/>
</svg>
